<?xml version="1.0" encoding="utf-8"?>
<!-- Generator: Adobe Illustrator 26.0.3, SVG Export Plug-In . SVG Version: 6.00 Build 0)  -->
<svg version="1.0" id="katman_1" xmlns="http://www.w3.org/2000/svg" xmlns:xlink="http://www.w3.org/1999/xlink" x="0px" y="0px"
	 viewBox="0 0 600 450" style="enable-background:new 0 0 600 450;" xml:space="preserve">
<style type="text/css">
	.st0{fill-rule:evenodd;clip-rule:evenodd;}
</style>
<g id="Symbols-desktop">
	<g id="kmc_x2F_nav_x2F_main-nav_x2F_XXL-desktop" transform="translate(-46.000000, -14.000000)">
		<g id="kawi_rivermark_logo-desktop" transform="translate(46.000000, 14.000000)">
			<path id="Fill-1-desktop" class="st0" d="M547.3,223.1c0-0.5-0.1-1-0.3-1.4c-0.2-0.4-0.5-0.7-0.9-1c-0.4-0.2-0.9-0.4-1.4-0.4
				c-0.5,0-0.9,0.1-1.3,0.4c-0.4,0.2-0.7,0.6-0.9,1c-0.2,0.4-0.3,0.9-0.3,1.4c0,0.5,0.1,1,0.3,1.4c0.2,0.4,0.5,0.7,0.9,1
				c0.4,0.2,0.8,0.3,1.3,0.3c0.5,0,1-0.1,1.4-0.3c0.4-0.2,0.7-0.5,0.9-1C547.2,224.1,547.3,223.6,547.3,223.1L547.3,223.1z
				 M548.1,223.1c0,0.6-0.1,1.2-0.4,1.7c-0.3,0.5-0.7,0.9-1.2,1.2c-0.5,0.3-1.1,0.4-1.7,0.4c-0.6,0-1.2-0.1-1.7-0.4
				c-0.5-0.3-0.9-0.7-1.2-1.2c-0.3-0.5-0.4-1.1-0.4-1.7c0-0.6,0.1-1.2,0.4-1.7c0.3-0.5,0.7-0.9,1.2-1.2c0.5-0.3,1.1-0.5,1.7-0.5
				c0.6,0,1.2,0.1,1.7,0.5c0.5,0.3,0.9,0.7,1.2,1.2C547.9,221.9,548.1,222.5,548.1,223.1L548.1,223.1z M545.4,222.3
				c0-0.2-0.1-0.3-0.2-0.4c-0.1-0.1-0.3-0.1-0.6-0.1h-0.4v1.1h0.4C545.1,222.9,545.4,222.7,545.4,222.3L545.4,222.3z M545.3,223.3
				l1,1.5h-0.9l-0.8-1.4h-0.3v1.4h-0.8v-3.6h1c1.1,0,1.6,0.4,1.6,1.1c0,0.3-0.1,0.5-0.2,0.6C545.7,223.1,545.5,223.3,545.3,223.3
				L545.3,223.3z M536.2,237.2h2.2v-17.5h-2.2V237.2z M530.3,237.2h2.2v-17.5h-2.2V237.2z M525.3,231.3c0-2.3-1.4-4.5-3.8-4.5
				c-2.4,0-3.8,2.2-3.8,4.5c0,2.1,1.2,4.5,3.8,4.5C524.1,235.7,525.3,233.4,525.3,231.3L525.3,231.3z M527.6,231.3
				c0,3.4-2.5,6.2-6.1,6.2c-3.6,0-6.1-2.8-6.1-6.2c0-3.6,2.5-6.2,6.1-6.2C525.2,225.1,527.6,227.7,527.6,231.3L527.6,231.3z
				 M509.8,227.2L509.8,227.2l0-1.8h-2.1v11.9h2.2v-5.4c0-3,1.3-4.8,3.3-4.8c0.4,0,0.8,0,1.2,0.2v-2c-0.5-0.1-0.8-0.2-1.5-0.2
				C511.7,225.1,510.4,225.9,509.8,227.2L509.8,227.2z M494.5,228.3c0-1,1-1.4,2.1-1.4c0.5,0,1.8,0.3,2.3,0.6l0.2-1.9
				c-0.9-0.3-1.7-0.5-2.8-0.5c-2.4,0-4.2,1.2-4.2,3.7c0,3.3,5.2,3.1,5.2,5.3c0,1.3-1.2,1.7-2.3,1.7c-0.6,0-1.9-0.3-2.8-0.8l-0.1,2
				c1,0.5,2.2,0.7,3.3,0.7c2.1,0,4.2-1.2,4.2-3.7C499.7,230,494.5,230.7,494.5,228.3L494.5,228.3z M488.5,230.1c0-1.8-1.1-3.3-3-3.3
				c-2.2,0-3.1,1.8-3.2,3.3H488.5z M490.9,231.8h-8.6c0,2.4,1.9,4,4,4c1.5,0,3.2-0.7,3.7-1.2v2.2c-0.8,0.3-1.8,0.8-3.8,0.8
				c-4.3,0-6.2-2.6-6.2-6.4c0-3.5,2.2-6,5.6-6C489.6,225.1,490.9,227.9,490.9,231.8L490.9,231.8z M473.5,225.1
				c-1.1,0-2.9,0.6-3.7,2.3c-0.6-1.6-2-2.3-3.4-2.3c-1.8,0-3,0.6-3.8,2h0v-1.7h-2.1v11.9h2.2v-6c0-2.2,0.9-4.4,3.2-4.4
				c1.8,0,2.1,1.8,2.1,3.3v7.1h2.2v-6c0-2.2,0.9-4.4,3.2-4.4c1.8,0,2.1,1.8,2.1,3.3v7.1h2.2v-7.6C477.7,227,476.5,225.1,473.5,225.1
				L473.5,225.1z M454.6,222.7h2.5v-2.5h-2.5V222.7z M454.8,237.2h2.2v-11.9h-2.2V237.2z M449.2,233.6v-6.5h3.2v-1.8h-3.2v-3.5
				l-2.2,0.7v2.8h-2.7v1.8h2.7v6.9c0,2.4,1.4,3.4,3.7,3.4c0.7,0,1.4-0.2,1.9-0.3v-1.9c-0.3,0.2-0.8,0.4-1.5,0.4
				C450,235.7,449.2,235,449.2,233.6L449.2,233.6z M434.7,231.3c0-2.2-1.2-4.5-3.6-4.5c-2.4,0-3.3,2.2-3.3,4.4
				c0,1.9,0.9,4.5,3.3,4.5C433.7,235.7,434.7,233.3,434.7,231.3L434.7,231.3z M434.7,219.7h2.2v17.5h-2.1v-1.7h0c-0.6,0.9-2,2-4.1,2
				c-3.6,0-5.2-3.2-5.2-6.4c0-3.2,1.7-6,5.2-6c2.1,0,3.3,0.8,4,1.9h0V219.7z M421.6,231.3c0-2.3-1.4-4.5-3.8-4.5
				c-2.4,0-3.8,2.2-3.8,4.5c0,2.1,1.2,4.5,3.8,4.5C420.4,235.7,421.6,233.4,421.6,231.3L421.6,231.3z M423.9,231.3
				c0,3.4-2.5,6.2-6.1,6.2c-3.6,0-6.1-2.8-6.1-6.2c0-3.6,2.5-6.2,6.1-6.2C421.5,225.1,423.9,227.7,423.9,231.3L423.9,231.3z
				 M407.8,231.3c0-2.3-1.4-4.5-3.7-4.5c-2.4,0-3.8,2.2-3.8,4.5c0,2.1,1.2,4.5,3.8,4.5C406.6,235.7,407.8,233.4,407.8,231.3
				L407.8,231.3z M410.2,231.3c0,3.4-2.5,6.2-6.1,6.2c-3.6,0-6.1-2.8-6.1-6.2c0-3.6,2.5-6.2,6.1-6.2
				C407.7,225.1,410.2,227.7,410.2,231.3L410.2,231.3z M393.4,231.4c0-2.5-1.2-4.6-3.5-4.6c-2.2,0-3.3,2.4-3.3,4.4
				c0,2.2,1.3,4.2,3.3,4.2S393.4,233.6,393.4,231.4L393.4,231.4z M393.5,225.3h2.1v11.4c0,3.6-1.9,5.7-6.2,5.7
				c-1.3,0-2.4-0.2-4.3-0.8l0.2-2c1.7,0.8,2.7,1.1,4.3,1.1c2.3,0,3.7-1.6,3.7-4.1v-1.2h0c-0.9,1.2-2.5,1.8-4,1.8
				c-3.4,0-5.1-2.8-5.1-5.8c0-3.1,1.7-6.3,5.4-6.3c2.1,0,3.3,0.8,4,2.1h0V225.3z M374.3,230.1c0-1.8-1.1-3.3-3-3.3
				c-2.2,0-3.1,1.8-3.2,3.3H374.3z M376.7,231.8h-8.6c0,2.4,1.9,4,4,4c1.5,0,3.2-0.7,3.7-1.2v2.2c-0.8,0.3-1.8,0.8-3.8,0.8
				c-4.3,0-6.2-2.6-6.2-6.4c0-3.5,2.2-6,5.6-6C375.4,225.1,376.7,227.9,376.7,231.8L376.7,231.8z M358.9,225.1c-1.7,0-3.1,0.7-3.9,2
				h0v-7.3h-2.2v17.5h2.2v-5.5c0-2.9,1.1-4.9,3.7-4.9c1.9,0.1,2.5,1.5,2.5,4.2v6.2h2.2v-7.1C363.4,227,362,225.1,358.9,225.1
				L358.9,225.1z M347.5,233.6v-6.5h3.2v-1.8h-3.2v-3.5l-2.2,0.7v2.8h-2.7v1.8h2.7v6.9c0,2.4,1.4,3.4,3.7,3.4c0.7,0,1.4-0.2,1.9-0.3
				v-1.9c-0.3,0.2-0.8,0.4-1.5,0.4C348.3,235.7,347.5,235,347.5,233.6L347.5,233.6z M333,233.6v-6.5h3.2v-1.8H333v-3.5l-2.2,0.7v2.8
				h-2.7v1.8h2.7v6.9c0,2.4,1.4,3.4,3.7,3.4c0.7,0,1.4-0.2,1.9-0.3v-1.9c-0.3,0.2-0.8,0.4-1.5,0.4C333.9,235.7,333,235,333,233.6
				L333,233.6z M325.1,230.1c0-1.8-1.1-3.3-3-3.3c-2.2,0-3.1,1.8-3.2,3.3H325.1z M327.5,231.8h-8.6c0,2.4,1.9,4,4,4
				c1.5,0,3.2-0.7,3.7-1.2v2.2c-0.8,0.3-1.8,0.8-3.8,0.8c-4.3,0-6.2-2.6-6.2-6.4c0-3.5,2.2-6,5.6-6
				C326.2,225.1,327.5,227.9,327.5,231.8L327.5,231.8z M308.7,221h-2.4v16.3h9.2v-2.1h-6.9V221z M52.2,223.4h12.2v3.8H52.2
				c0.8,9,7.7,16.4,16.6,18.2V241c-5-1.2-9.2-4.8-11.1-9.5l0,0h11.1v-12.4l-11.1,0c2-4.6,6.1-8.2,11.1-9.4v-4.4
				C59.9,207,53.1,214.4,52.2,223.4L52.2,223.4z M70.6,205v40.6c0.7,0.1,1.5,0.1,2.2,0.1c0.6,0,1.4,0,2.2-0.1v-40.6
				c-0.7-0.1-1.4-0.1-2.2-0.1C72,204.9,71.4,205,70.6,205L70.6,205z M81.1,227.3L81.1,227.3v-3.8l0,0v0h12.2
				c-0.9-9-7.7-16.4-16.6-18.1v4.4c5,1.2,9.1,4.8,11.1,9.4H76.8v12.4h11.1l0,0c-2,4.6-6.1,8.2-11.1,9.5v4.4
				c8.9-1.7,15.7-9.1,16.6-18.2L81.1,227.3L81.1,227.3z M199.3,232c0,0-3.1,1-4.8,1.7c-1.7,0.7-0.9,2-0.9,2s0.9,1.4,2.9,0.9
				C199.5,235.8,199.3,232,199.3,232L199.3,232z M206.7,226.7c0.5,7-0.5,11.7,1.6,14.4h-7.8c0,0-0.7-0.9-1.1-1.8
				c0,0-2.1,2.4-6.6,2.4c-4.5,0-7-2.6-7-5.9c0-3.3,2-5.8,8.2-6.9c2.5-0.4,4.7-0.7,4.9-2.1c0.1-1.4-1.8-1.6-2.3-1.6
				c0,0-2.9-0.2-2.9,2.9h-7.3c0,0-1.5-8,10.7-8C197.1,220.2,206.2,219.7,206.7,226.7L206.7,226.7z M144.9,232c0,0-3.1,1-4.8,1.7
				c-1.7,0.7-0.9,2-0.9,2s0.9,1.4,2.9,0.9C145.2,235.8,144.9,232,144.9,232L144.9,232z M152.4,226.7c0.5,7-0.5,11.7,1.6,14.4h-7.8
				c0,0-0.7-0.9-1.1-1.8c0,0-2.1,2.4-6.6,2.4c-4.5,0-7-2.6-7-5.9c0-3.3,2-5.8,8.2-6.9c2.5-0.4,4.7-0.7,4.9-2.1
				c0.1-1.4-1.8-1.6-2.3-1.6c0,0-2.9-0.2-2.9,2.9h-7.3c0,0-1.5-8,10.7-8C142.8,220.2,151.9,219.7,152.4,226.7L152.4,226.7z
				 M131.6,213.9h-10.5l-8.4,8.3v-8.3h-8.4v27.2h8.4v-8.1l2.2-2.2l6.6,10.3h10.9L121,224.7L131.6,213.9z M274.1,221.4h-9.5l-4.1,4.7
				v-12.2h-8v27.2h8v-5.6l1-1.1l4.4,6.6h9.3l-8.2-12.3L274.1,221.4z M276.2,241.1h8v-19.7h-8V241.1z M276.2,219.4h8v-5.5h-8V219.4z
				 M242.8,232c0,0-3.1,1-4.8,1.7c-1.7,0.7-0.9,2-0.9,2s0.9,1.4,2.9,0.9C243,235.8,242.8,232,242.8,232L242.8,232z M250.2,226.7
				c0.5,7-0.5,11.7,1.6,14.4H244c0,0-0.7-0.9-1.1-1.8c0,0-2.1,2.4-6.6,2.4c-4.5,0-7-2.6-7-5.9c0-3.3,2-5.8,8.2-6.9
				c2.5-0.4,4.7-0.7,4.9-2.1c0.1-1.4-1.8-1.6-2.3-1.6c0,0-2.9-0.2-2.9,2.9h-7.3c0,0-1.5-8,10.7-8
				C240.7,220.2,249.7,219.7,250.2,226.7L250.2,226.7z M220.7,228.3c-4.3-0.6-4.9-0.9-4.9-1.8c0-0.7,0.9-1.3,2.4-1.3
				c1.5,0,2.4,1.1,2.6,2.2h7c0-3.7-2.5-6.9-9.8-6.9c-10.3,0-9.7,6.7-9.7,6.7c0,5.5,6.7,6.1,9.8,6.5c2.8,0.4,2.7,2,2.7,2
				s0.1,1.5-2.5,1.5c-3.2,0-3.1-3-3.1-3H208c0,6.3,5.6,7.8,10.4,7.8c4.7,0,10-1.6,10-6.6C228.4,230.5,225.6,229.3,220.7,228.3
				L220.7,228.3z M186.7,221.4l-6.1,19.7h-7.8l-3.1-9.6l-2.7,9.6h-8.1l-6.9-19.7h8.3l2.8,9.2l2.9-9.2h7l2.7,9.2l3.1-9.2H186.7z"/>
		</g>
	</g>
</g>
</svg>
